<svg xmlns="http://www.w3.org/2000/svg" version="1.1" xmlns:xlink="http://www.w3.org/1999/xlink" width="220" height="222"><svg width="220" height="222" fill="none" xmlns="http://www.w3.org/2000/svg"><path d="M110 221.13c60.751 0 110-49.501 110-110.565C220 49.502 170.751 0 110 0S0 49.502 0 110.565C0 171.629 49.249 221.13 110 221.13z" fill="#E3DDD3"></path><path d="M52.4 132.868c-.282.286-.661.347-1.144.182-6.565-2.156-13.142-4.021-19.893-5.49-.42-.087-.618.147-.59.698.274 4.359.69 8.666 1.256 12.993.078.531.316.848.713.952 3.313.875 6.602 1.839 9.869 2.872.465.148.853.448 1.155.895.305.448.491.993.563 1.622.727 5.811 1.63 11.59 2.956 17.297.139.597.124 1.021-.037 1.267-.16.245-.457.285-.882.121a2030.897 2030.897 0 00-8.953-3.426c-.359-.136-.46.043-.304.534 3.324 9.915 7.55 19.215 12.923 28.178.3.482.443.791.434.932-.008.142-.17.096-.483-.135-3.51-2.679-6.84-5.47-10.093-8.464a53.46 53.46 0 01-.991-.975c-.38-.381-.761-.771-1.144-1.178-18.888-20.792-28.291-46.696-27.314-74.822.031-.58.207-1.056.525-1.432a1.894 1.894 0 011.253-.661c14.024-1.333 27.315.892 40.692 5.098.497.164.862.488 1.092.958.23.474.302 1.048.218 1.712a221.083 221.083 0 00-1.385 18.846c-.014.667-.16 1.14-.44 1.423l.004.003zM96.037 150.528c-.285.225-.661.24-1.13.049-6.4-2.647-12.77-5.366-19.155-8.056-.402-.168-.612.02-.632.566-.109 4.309-.126 8.601-.043 12.911.014.531.221.869.618 1.019a922.524 922.524 0 009.812 3.675c.462.17.833.473 1.103.906.27.433.414.944.428 1.53.187 5.38.523 10.726 1.026 16.086.057.56-.026.962-.247 1.204-.222.245-.558.303-1.003.17-3.16-.943-6.3-1.922-9.441-2.938-.38-.124-.535.061-.466.557.578 3.934 1.21 7.854 2 11.754.095.473.325.765.69.875a204.664 204.664 0 0017.646 4.335c.437.081.808.292 1.104.624.296.332.482.75.563 1.25a191.89 191.89 0 002.692 13.552c.109.465.077.817-.092 1.059-.172.243-.46.344-.871.303-10.71-1.278-20.778-3.92-30.736-8.079-.362-.159-.707-.433-1.035-.817a4.904 4.904 0 01-.807-1.351c-10.99-28.095-13.978-58.014-10.47-87.912.087-.664.296-1.135.63-1.412.33-.274.744-.32 1.23-.135 12.868 5.062 25.087 11.419 37.324 17.838.463.243.804.604 1.023 1.077.218.473.29 1.005.215 1.59a293.217 293.217 0 00-1.508 16.561c-.032.586-.19.987-.474 1.209h.006zM114.258 210.958c-3.206-1.415-5.968-3.721-8.022-6.561-2.201-3.046-3.585-6.64-4.083-10.369a193.804 193.804 0 01-.425-3.331c-.06-.505.023-.88.247-1.12.224-.24.566-.32 1.017-.24a197.498 197.498 0 0015.205 1.989c.451.035.819.191 1.095.465.275.274.431.632.465 1.074.066.837.101 1.253.172 2.081.087 1.005.42 1.824.98 2.445.563.623 1.218.926 1.971.921.75-.006 1.351-.286 1.81-.829.457-.542.661-1.227.604-2.064-.069-1.016-.641-2.049-1.73-3.074-2.109-1.989-4.548-3.735-6.841-5.559-3.068-2.442-5.97-5.127-8.562-8.065-2.502-2.841-4.453-6.166-5.944-9.65-1.773-4.139-2.477-8.561-2.33-12.776.137-3.949.948-8.088 3.421-11.583a11.706 11.706 0 018.43-4.887c4.146-.41 8.097.84 11.705 2.395a46.532 46.532 0 0111.444 7.052c2.899 2.437 5.723 5.415 7.226 8.735 1.508 3.325 1.867 5.868 1.844 9.699-.074.762-.109 1.143-.181 1.899-.037.401-.207.704-.502.909-.299.205-.693.289-1.178.246a169.403 169.403 0 01-16.093-2.465c-.48-.104-.853-.321-1.117-.65-.265-.329-.388-.733-.368-1.206.043-1.054.069-1.582.121-2.645.051-1.021-.176-1.931-.69-2.742-.514-.808-1.218-1.356-2.115-1.625-.896-.271-1.623-.133-2.175.422-.554.554-.859 1.446-.91 2.655-.061 1.426.436 2.97 1.497 4.503 1.749 2.526 4.091 4.737 6.421 6.752 3.149 2.722 6.407 5.337 9.619 7.97 2.12 1.737 3.735 3.524 4.856 5.409 1.12 1.888 1.563 4.07 1.514 6.521-.089 4.413-2.313 8.697-5.241 11.898-3.456 3.778-8.119 5.831-12.906 6.688-3.335.598-7.039.127-10.254-1.29l.003.003zM200.943 155.245c.232.121.293.303.178.542-1.282 2.699-1.971 4.024-3.442 6.608-.132.231-.377.435-.727.614a4.318 4.318 0 01-1.264.396c-4.132.655-8.26 1.209-12.415 1.68-.422.046-.678.185-.764.424-3.595 9.633-7.738 18.898-12.895 27.795a3.621 3.621 0 01-.586.707 6.378 6.378 0 01-.87.713 137.082 137.082 0 01-11.41 6.795c-.35.179-.612.239-.778.187-.17-.054-.227-.219-.17-.49 2.391-11.489 4.534-23.023 6.712-34.552.054-.295-.129-.442-.558-.445a198.949 198.949 0 01-12.305-.54c-.497-.043-.876-.193-1.132-.444-.256-.251-.362-.577-.316-.976.454-3.767.954-7.525 1.511-11.277.06-.402.253-.69.578-.861.324-.167.744-.199 1.255-.095 15.943 2.993 32.07 3.695 48.257 3.077.523-.026.902.023 1.135.145l.006-.003zM44.766 42.271c-.201.277-.385.453-.558.528-2.8 1.25-4.169 1.923-6.932 3.378-.144.075-.31.274-.495.597a107.444 107.444 0 00-4.171 8.016c-.164.344-.164.488 0 .424 1.603-.614 2.447-.903 4.01-1.451.184-.064.28.005.288.21.008.205-.07.523-.236.95a212.583 212.583 0 00-4.229 12.418c-.135.459-.299.831-.488 1.111-.19.283-.388.442-.587.48-1.703.314-2.666.484-4.459.88-.18.04-.333.248-.454.626a158.91 158.91 0 00-5.441 24.634c-.06.479-.17.86-.33 1.137-.162.28-.354.421-.578.43-3.049.11-4.571.24-7.57.644-.222.029-.38-.078-.475-.32-.092-.243-.112-.592-.049-1.048 3.345-21.433 12.39-40.236 27.09-56.126.3-.312.573-.59.817-.834.241-.243.425-.428.552-.546 3.292-3.146 6.771-6.117 10.458-8.79.138-.1.19-.078.152.07-.037.147-.158.404-.362.768-1.965 3.515-3.706 7.13-5.387 10.792-.181.404-.37.748-.57 1.022h.004zM32.325 96.674c-.086-.306-.098-.722-.034-1.238 3.062-22.781 8.843-45.169 19.416-65.649a8.19 8.19 0 01.586-.95c.193-.262.362-.447.503-.545a81.851 81.851 0 014.89-3.199c.147-.089.218-.049.213.125-.006.173-.086.461-.242.86-6.484 17.134-10.667 34.924-13.923 52.936-.08.459-.026.693.164.704 3.16.249 6.263.578 9.407.987.227.032.385.226.465.575.083.35.08.817-.003 1.397a1127.29 1127.29 0 00-2.235 16.433c-.075.589-.198 1.036-.37 1.334-.173.3-.374.415-.604.349-5.887-1.596-11.742-2.82-17.785-3.617-.215-.026-.365-.193-.45-.502h.002zM57.982 102.317c-.075-.392-.075-.898.006-1.515 1.301-10.014 2.663-20.021 4.028-30.026.069-.517.1-.857.095-1.033.304-15.686.336-31.565 2.47-47.138a3.57 3.57 0 01.107-.542c.172-.681.402-1.091.69-1.236a84.643 84.643 0 015.614-2.589c.319-.136.45.214.39 1.06-.597 7.095-1.02 14.201-1.419 21.308-.011.312.026.465.11.456.083-.009.157-.173.223-.497a2345.51 2345.51 0 003.974-22.362c.172-.93.42-1.449.747-1.573a83.93 83.93 0 015.898-2.006c.193-.058.32.066.377.378.06.312.054.774-.017 1.386-2.69 18.3-6.313 36.416-10.436 54.443-.051.179-.109.542-.175 1.094-1.273 10.666-2.675 21.311-4.146 31.951-.092.652-.221 1.143-.394 1.466-.172.324-.361.445-.571.361-2.833-1.134-4.258-1.677-7.14-2.682-.212-.075-.356-.308-.434-.701l.003-.003zM74.735 109.331c-.057-.444-.031-1.013.072-1.703 4.545-30.487 7.269-61.087 8.09-91.904.015-.531.072-.959.176-1.288.103-.326.238-.516.41-.563a84.536 84.536 0 015.813-1.428c.172-.038.316.095.425.39.11.297.175.73.193 1.295.974 32.61-1.64 65.11-6.87 97.283-.12.724-.276 1.264-.46 1.619-.186.358-.379.485-.58.387a252.682 252.682 0 00-6.875-3.277c-.204-.095-.334-.366-.391-.811h-.003z" fill="#E24B2C"></path><path d="M103.073 10.993c.063-.358.184-.543.368-.557a85.197 85.197 0 016.096-.254c.184 0 .357.178.515.542.16.364.287.87.379 1.513 5.036 36.89 2.884 74.103-4.706 110.485-.173.808-.371 1.417-.586 1.816-.219.404-.429.551-.627.447-2.534-1.31-5.062-2.63-7.59-3.949-.365-.19-.443-1.027-.245-2.517 2.1-17.12 3.14-34.272 3.083-51.522-.011-.329-.06-.502-.152-.522-.092-.02-.15.188-.175.615-1.095 16.589-3.184 33.004-6.14 49.36-.144.764-.316 1.339-.512 1.714-.198.378-.393.517-.592.413a578.26 578.26 0 00-6.654-3.4c-.2-.101-.322-.39-.362-.866-.04-.474 0-1.08.127-1.813 5.441-32.676 7.886-65.605 6.585-98.723-.026-.571.006-1.03.089-1.374.083-.34.215-.53.39-.563a86.211 86.211 0 016.683-.992c.334-.038.592.493.773 1.61 2.414 14.78 3.934 29.613 4.643 44.571.018.433.072.658.161.676.089.017.141-.19.155-.618.325-14.926-.172-29.772-1.695-44.626-.066-.618-.069-1.105-.005-1.466h-.006z" fill="#E24B2C"></path><path d="M111.439 119.203c-.462-8.994.635-18.312 1.684-27.37 1.985-17.527 2.623-35.054 1.827-52.676-.339-7.375-.971-15.212.403-22.253.494-2.531 1.267-7.666 4.939-7.412 1.634.112 3.401 1.498 5.165 4.119 2.342 3.475 3.804 7.427 5.109 11.358 1.905 5.742 2.804 11.864 3.473 17.929.21 2.231.302 3.36.46 5.634.058.806.037 1.426-.055 1.86-.091.432-.244.625-.453.573a254.111 254.111 0 00-7.068-1.602c-.207-.043-.38-.306-.517-.782-.138-.473-.225-1.108-.265-1.893a220.142 220.142 0 00-.356-5.834c-.152-2.087-.42-3.767-.776-5.049-.356-1.278-.738-1.945-1.138-2.009-.399-.063-.658.5-.795 1.689-.138 1.195-.127 2.814.011 4.884 1.089 18.226.483 36.37-1.707 54.495-.296 2.312-.431 4.212-.382 5.698.049 1.489.27 2.315.69 2.474.419.156.868-.416 1.333-1.729.465-1.31.865-3.135 1.164-5.465a247.52 247.52 0 001.017-9.046c.071-.742.011-1.14-.173-1.198-.146-.046-.218-.07-.365-.115-.212-.067-.356-.367-.433-.895-.078-.528-.081-1.221-.009-2.078.523-6.879.836-13.743.937-20.64.008-.816.069-1.442.189-1.881.121-.436.285-.63.497-.58 2.85.672 5.695 1.385 8.528 2.124.215.055.388.34.517.849.129.51.198 1.186.204 2.026a286.98 286.98 0 01-2.1 34.284c-.974 6.67-2.207 13.413-4.672 19.634-1.641 4.139-3.505 8.371-6.548 11.679-2.189 2.378-4.442 3.129-6.12 2.196-4.019-2.234-4.005-8.818-4.22-12.998h.005zM154.237 20.224c.259.43.538.99.828 1.677 2.741 6.734 5.016 13.526 6.941 20.543.204.774.305 1.369.308 1.776.003.41-.092.583-.282.52a237.265 237.265 0 00-4.804-1.548c-.163-.052-.172.26-.028.938 6.441 32.367 4.516 65.175-4.62 96.829-.262.869-.535 1.539-.813 2.003-.279.468-.532.676-.75.627-2.971-.676-4.439-1.051-7.333-1.879-.212-.061-.304-.358-.278-.892.026-.529.166-1.236.416-2.108 8.763-31.688 10.984-64.38 5.603-96.866-.118-.678-.264-1.04-.428-1.085-1.905-.532-2.862-.791-4.778-1.288-.195-.049-.382-.314-.566-.79-.184-.477-.339-1.106-.474-1.886a227.801 227.801 0 00-4.738-20.797c-.201-.701-.316-1.236-.336-1.605-.02-.367.052-.531.224-.482a131.12 131.12 0 0115.285 5.565c.158.072.368.323.626.754l-.003-.006z" fill="#E24B2C"></path><path d="M172.223 144.221c1.319-4.515 2.399-9.104 3.31-13.717.058-.245.083-.494.078-.75-.006-.254-.058-.39-.15-.402a222.286 222.286 0 01-4.105-.606c-.092-.014-.199.098-.316.338a3.228 3.228 0 00-.262.73c-1.215 4.648-2.658 9.237-4.258 13.763-.575 1.7-1.129 2.514-1.617 2.454-3.075-.39-4.6-.624-7.614-1.166-.512-.093-.394-1.115.304-3.075 13.409-38.131 16.458-80.444 1-118.463-.514-1.224-.632-1.747-.322-1.588 2.405 1.247 3.583 1.905 5.89 3.3.296.178.822.886 1.552 2.138 20.195 35.75 26.272 77.579 15.69 117.422-.095.28-.144.421-.241.699-.483 1.397-.966 2.081-1.414 2.055-3.089-.171-4.614-.28-7.628-.552-.468-.043-.42-.897.1-2.58h.003zm3.873-42.542c.862.179 1.293.266 2.158.442.215.043.313-.326.29-1.106a185.373 185.373 0 00-3.011-33.608c-.103-.479-.184-.727-.241-.745-.058-.017-.061.208-.015.67 1.27 11.073 1.443 22.025.65 33.141-.041.77.014 1.174.166 1.203l.003.003z" fill="#E24B2C"></path><path d="M183.219 40.51c3.479 3.79 6.76 7.82 9.843 11.948 3.979 5.326 7.418 11.208 10.01 17.192 2.347 5.421 4.35 11.471 4.766 17.438.279 4.01.357 8.149-1.071 12.016-1.023 2.774-2.606 4.088-4.396 3.756-1.037-.194-1.557-.289-2.595-.485-.183-.035-.27.306-.267 1.03-.146 14.401-2.471 28.161-7.099 41.795-.279.782-.575 1.397-.871 1.838-.299.445-.566.667-.796.664a200.167 200.167 0 01-7.723-.193c-.227-.009-.319-.246-.281-.713.037-.465.198-1.106.48-1.917 12.486-38.059 9.377-79.414-11.634-113.828a21.25 21.25 0 01-.83-1.394c-.152-.297-.161-.398-.02-.297a94.401 94.401 0 016.556 5.077c2.115 1.868 4.031 4.01 5.922 6.07l.006.004zm14.857 34.544c-.118-1.68-.687-4.362-1.96-7.765-1.02-2.722-2.149-5.482-3.634-8.033-1.115-1.917-1.974-3.01-2.535-3.28-.189-.092-.284-.135-.476-.227-.147-.07-.084.196.183.805a136.206 136.206 0 016.554 19.484c.161.667.322 1.03.488 1.083.219.069.328.104.546.17.644.202.948-.56.828-2.237h.006z" fill="#E24B2C"></path></svg><style>@media (prefers-color-scheme: light) { :root { filter: none; } }
@media (prefers-color-scheme: dark) { :root { filter: none; } }
</style></svg>