<svg width="236" height="122" fill="none" xmlns="http://www.w3.org/2000/svg"><path d="M0 34.569l13.605-7.855v15.71L0 34.569zM41.908 34.569l-13.604 7.854V26.714l13.604 7.855z" fill="#E25D40"/><path d="M9.382 34.884C9.382 28.321 14.563 23 20.954 23c6.391 0 11.572 5.32 11.572 11.884S27.345 46.77 20.954 46.77c-6.39 0-11.572-5.321-11.572-11.885zM158.908 109.569l-13.604 7.855v-15.71l13.604 7.855zM117 109.569l13.605-7.855v15.71L117 109.569z" fill="#E25D40"/><path d="M126.382 109.885c0-6.564 5.321-11.885 11.885-11.885s11.884 5.321 11.884 11.885c0 6.563-5.32 11.884-11.884 11.884s-11.885-5.321-11.885-11.884zM235.908 10.946l-13.604 7.855V3.091l13.604 7.855zM194 10.946l13.605-7.854V18.8L194 10.946z" fill="#E25D40"/><path d="M226.533 11.259c0 6.218-5.041 11.259-11.259 11.259-6.219 0-11.259-5.04-11.259-11.259 0-6.218 5.04-11.259 11.259-11.259 6.218 0 11.259 5.04 11.259 11.259z" fill="#E25D40"/></svg>