<svg width="402" height="92" fill="none" xmlns="http://www.w3.org/2000/svg"><path d="M97.88 45.164c0 25.398-23.163 45.986-51.736 45.986h-2.407C15.163 91.15-8 70.562-8 45.164V1.071C-8 .24-6.978-.274-6.176.155l12.63 6.761c23.676 12.675 53.297 12.675 76.974 0L96.056.156c.802-.43 1.824.083 1.824.915v44.093zM305.96 45.164c0 25.398-23.163 45.986-51.737 45.986h-2.406c-28.574 0-51.738-20.588-51.738-45.986V1.071c0-.832 1.022-1.345 1.824-.916l12.63 6.761c23.677 12.675 53.297 12.675 76.974 0l12.63-6.76c.801-.43 1.823.083 1.823.915v44.093z" fill="#E3DDD3"/><path d="M201.921 45.164c0 25.398-23.163 45.986-51.737 45.986h-2.406c-28.574 0-51.738-20.588-51.738-45.986V1.071c0-.832 1.022-1.345 1.824-.916l12.63 6.761c23.677 12.675 53.297 12.675 76.974 0l12.629-6.76c.802-.43 1.824.083 1.824.915v44.093zM410.001 45.164C410 70.562 386.837 91.15 358.263 91.15h-2.406c-28.574 0-51.738-20.588-51.738-45.986V1.071c0-.832 1.022-1.345 1.824-.916l12.63 6.761c23.677 12.675 53.297 12.675 76.974 0l12.63-6.76c.801-.43 1.824.083 1.824.915v44.093z" fill="#E3DDD3"/></svg>