<svg width="402" height="84" fill="none" xmlns="http://www.w3.org/2000/svg"><path d="M300.172 41.88c0-23.13 22.277-41.88 49.757-41.88h2.314C379.723 0 402 18.75 402 41.88v40.155c0 .758-.983 1.225-1.754.834L388.1 76.712c-22.771-11.543-51.258-11.543-74.028 0l-12.146 6.157c-.771.391-1.754-.076-1.754-.834V41.879zM100.057 41.88c0-23.13 22.277-41.88 49.757-41.88h2.314c27.48 0 49.757 18.75 49.757 41.88v40.155c0 .758-.983 1.225-1.754.834l-12.146-6.157c-22.771-11.543-51.257-11.543-74.028 0l-12.146 6.157c-.771.391-1.754-.076-1.754-.834V41.879z" fill="#E3DDD3"/><path d="M200.114 41.88c0-23.13 22.277-41.88 49.757-41.88h2.314c27.48 0 49.757 18.75 49.757 41.88v40.155c0 .758-.983 1.225-1.754.834l-12.146-6.157c-22.771-11.543-51.258-11.543-74.028 0l-12.146 6.157c-.771.391-1.754-.076-1.754-.834V41.879zM0 41.88C0 18.75 22.277 0 49.757 0h2.314c27.48 0 49.757 18.75 49.757 41.88v40.155c0 .758-.983 1.225-1.754.834l-12.146-6.157c-22.77-11.543-51.257-11.543-74.028 0L1.754 82.87C.983 83.26 0 82.793 0 82.035V41.879z" fill="#E3DDD3"/></svg>