<svg width="201" height="203" viewBox="0 0 201 203" fill="none" xmlns="http://www.w3.org/2000/svg">
<g opacity="0.88" filter="url(#filter0_i_90_1402)">
<path d="M67.1094 100.58C85.7214 100.58 100.809 115.595 100.809 134.118L100.809 135.678C100.809 154.201 85.7214 169.216 67.1094 169.216L34.7964 169.216C34.1867 169.216 33.8105 168.554 34.1251 168.034L39.0796 159.847C48.368 144.499 48.368 125.297 39.0796 109.949L34.1251 101.762C33.8105 101.242 34.1867 100.58 34.7964 100.58L67.1094 100.58Z" fill="#E3DDD3"/>
<path d="M67.1094 33.1693C85.7214 33.1693 100.809 48.1849 100.809 66.7075L100.809 68.2674C100.809 86.7901 85.7214 101.806 67.1094 101.806L34.7964 101.806C34.1867 101.806 33.8105 101.143 34.1251 100.623L39.0796 92.4363C48.368 77.0881 48.368 57.8868 39.0796 42.5386L34.1251 34.3517C33.8105 33.8318 34.1867 33.1693 34.7964 33.1693L67.1094 33.1693Z" fill="#E3DDD3"/>
<path d="M133.59 169.216C114.978 169.216 99.8901 154.201 99.8901 135.678L99.8901 134.118C99.8901 115.595 114.978 100.58 133.59 100.58L165.903 100.58C166.513 100.58 166.889 101.242 166.574 101.762L161.62 109.949C152.331 125.297 152.331 144.499 161.62 159.847L166.574 168.034C166.889 168.554 166.513 169.216 165.903 169.216L133.59 169.216Z" fill="#E3DDD3"/>
<path d="M133.59 101.805C114.978 101.805 99.8901 86.7897 99.8901 68.2671L99.8901 66.7072C99.8901 48.1846 114.978 33.169 133.59 33.169L165.903 33.169C166.513 33.169 166.889 33.8315 166.574 34.3514L161.62 42.5383C152.331 57.8865 152.331 77.0878 161.62 92.436L166.574 100.623C166.889 101.143 166.513 101.805 165.903 101.805L133.59 101.805Z" fill="#E3DDD3"/>
</g>
<defs>
<filter id="filter0_i_90_1402" x="0" y="0" width="204.7" height="206.385" filterUnits="userSpaceOnUse" color-interpolation-filters="sRGB">
<feFlood flood-opacity="0" result="BackgroundImageFix"/>
<feBlend mode="normal" in="SourceGraphic" in2="BackgroundImageFix" result="shape"/>
<feColorMatrix in="SourceAlpha" type="matrix" values="0 0 0 0 0 0 0 0 0 0 0 0 0 0 0 0 0 0 127 0" result="hardAlpha"/>
<feOffset dx="8" dy="4"/>
<feGaussianBlur stdDeviation="2"/>
<feComposite in2="hardAlpha" operator="arithmetic" k2="-1" k3="1"/>
<feColorMatrix type="matrix" values="0 0 0 0 0 0 0 0 0 0 0 0 0 0 0 0 0 0 0.23 0"/>
<feBlend mode="normal" in2="shape" result="effect1_innerShadow_90_1402"/>
</filter>
</defs>
</svg>
