<svg width="220" height="222" viewBox="0 0 220 222" fill="none" xmlns="http://www.w3.org/2000/svg">
<path d="M110 221.13C170.751 221.13 220 171.629 220 110.565C220 49.5017 170.751 0 110 0C49.2487 0 0 49.5017 0 110.565C0 171.629 49.2487 221.13 110 221.13Z" fill="#E3DDD3"/>
<path d="M52.3997 132.868C52.1181 133.154 51.7389 133.215 51.2562 133.05C44.6911 130.894 38.1145 129.029 31.3627 127.56C30.9432 127.473 30.745 127.707 30.7737 128.258C31.0466 132.617 31.4632 136.924 32.0292 141.251C32.1068 141.782 32.3453 142.099 32.7418 142.203C36.0545 143.078 39.3442 144.042 42.611 145.075C43.0764 145.223 43.4643 145.523 43.7659 145.97C44.0705 146.418 44.2572 146.963 44.3291 147.592C45.056 153.403 45.9581 159.182 47.2855 164.889C47.4234 165.486 47.4091 165.91 47.2482 166.156C47.0873 166.401 46.7913 166.441 46.3661 166.277C43.3838 165.128 40.3986 163.985 37.4135 162.851C37.0543 162.715 36.9538 162.894 37.1089 163.385C40.4331 173.3 44.6595 182.6 50.0322 191.563C50.331 192.045 50.4747 192.354 50.4661 192.495C50.4574 192.637 50.2965 192.591 49.9834 192.36C46.4724 189.681 43.1425 186.89 39.8901 183.896C39.6085 183.628 39.2781 183.302 38.8989 182.921C38.5196 182.54 38.1375 182.15 37.7554 181.743C18.8675 160.951 9.46376 135.047 10.4406 106.921C10.4722 106.341 10.6475 105.865 10.9664 105.489C11.2824 105.117 11.7019 104.892 12.2191 104.828C26.2428 103.495 39.5338 105.72 52.9111 109.926C53.4081 110.09 53.773 110.414 54.0029 110.884C54.2327 111.358 54.3046 111.932 54.2212 112.596C53.4886 118.874 53.0318 125.126 52.8364 131.442C52.822 132.109 52.6755 132.582 52.3968 132.865L52.3997 132.868Z" fill="#E24B2C"/>
<path d="M96.0366 150.528C95.7522 150.753 95.3758 150.768 94.9075 150.577C88.5061 147.93 82.1364 145.211 75.7524 142.521C75.3501 142.353 75.1404 142.541 75.1203 143.087C75.0111 147.396 74.9939 151.688 75.0772 155.998C75.0915 156.529 75.2984 156.867 75.6949 157.017C78.9588 158.258 82.2284 159.488 85.5066 160.692C85.9692 160.862 86.3398 161.165 86.6099 161.598C86.88 162.031 87.0236 162.542 87.038 163.128C87.2247 168.508 87.5609 173.854 88.0637 179.214C88.1211 179.774 88.0378 180.176 87.8166 180.418C87.5954 180.663 87.2592 180.721 86.8139 180.588C83.6534 179.645 80.5131 178.666 77.3728 177.65C76.9936 177.526 76.8384 177.711 76.9074 178.207C77.4849 182.141 78.1169 186.061 78.907 189.961C79.0019 190.434 79.2317 190.726 79.5966 190.836C85.4319 192.539 91.2816 193.991 97.2433 195.171C97.68 195.252 98.0507 195.463 98.3466 195.795C98.6425 196.127 98.8293 196.545 98.9097 197.045C99.6366 201.594 100.55 206.114 101.602 210.597C101.711 211.062 101.679 211.414 101.51 211.656C101.338 211.899 101.05 212 100.639 211.959C89.9283 210.681 79.8609 208.039 69.9027 203.88C69.5407 203.721 69.1959 203.447 68.8684 203.063C68.5408 202.679 68.2708 202.229 68.061 201.712C57.0713 173.617 54.0833 143.698 57.5914 113.8C57.6776 113.136 57.8873 112.665 58.2206 112.388C58.551 112.114 58.9647 112.068 59.4503 112.253C72.319 117.315 84.5384 123.672 96.775 130.091C97.2376 130.334 97.5795 130.695 97.7978 131.168C98.0162 131.641 98.088 132.173 98.0133 132.758C97.3525 138.272 96.8526 143.776 96.5049 149.319C96.4733 149.905 96.3153 150.306 96.0308 150.528H96.0366Z" fill="#E24B2C"/>
<path d="M114.258 210.958C111.051 209.543 108.29 207.237 106.236 204.397C104.035 201.351 102.65 197.757 102.153 194.028C101.975 192.706 101.889 192.039 101.728 190.697C101.668 190.192 101.751 189.817 101.975 189.577C102.199 189.337 102.541 189.257 102.992 189.337C108.049 190.195 113.091 190.862 118.197 191.326C118.648 191.361 119.016 191.517 119.292 191.791C119.567 192.065 119.722 192.423 119.757 192.865C119.823 193.702 119.858 194.118 119.929 194.946C120.016 195.951 120.349 196.77 120.909 197.391C121.472 198.014 122.127 198.317 122.88 198.312C123.63 198.306 124.23 198.026 124.69 197.483C125.147 196.941 125.351 196.256 125.293 195.419C125.225 194.403 124.653 193.37 123.564 192.345C121.455 190.356 119.016 188.61 116.723 186.786C113.654 184.344 110.753 181.659 108.161 178.721C105.659 175.88 103.708 172.555 102.217 169.071C100.444 164.932 99.7399 160.51 99.8865 156.295C100.024 152.346 100.835 148.207 103.308 144.712C105.285 141.92 108.354 140.159 111.738 139.825C115.884 139.415 119.835 140.665 123.443 142.22C127.457 143.952 131.396 146.334 134.887 149.272C137.786 151.709 140.61 154.687 142.113 158.007C143.621 161.332 143.98 163.875 143.957 167.706C143.883 168.468 143.848 168.849 143.776 169.605C143.739 170.006 143.569 170.309 143.273 170.514C142.975 170.719 142.581 170.803 142.095 170.76C136.671 170.197 131.35 169.374 126.003 168.295C125.523 168.191 125.15 167.974 124.885 167.645C124.621 167.316 124.498 166.912 124.518 166.439C124.561 165.385 124.587 164.857 124.638 163.794C124.69 162.773 124.463 161.863 123.949 161.052C123.435 160.244 122.731 159.696 121.834 159.427C120.938 159.156 120.211 159.294 119.659 159.849C119.105 160.403 118.8 161.295 118.749 162.504C118.688 163.93 119.185 165.474 120.245 167.007C121.995 169.533 124.337 171.744 126.667 173.759C129.816 176.481 133.074 179.096 136.286 181.729C138.406 183.466 140.021 185.253 141.142 187.138C142.262 189.026 142.705 191.208 142.656 193.659C142.567 198.072 140.343 202.356 137.415 205.557C133.959 209.335 129.296 211.388 124.509 212.245C121.173 212.843 117.47 212.372 114.255 210.955L114.258 210.958Z" fill="#E24B2C"/>
<path d="M200.943 155.245C201.175 155.366 201.236 155.548 201.121 155.787C199.839 158.486 199.15 159.811 197.679 162.395C197.547 162.626 197.302 162.83 196.952 163.009C196.596 163.191 196.176 163.324 195.688 163.405C191.556 164.06 187.428 164.614 183.273 165.085C182.851 165.131 182.595 165.27 182.509 165.509C178.914 175.142 174.771 184.407 169.614 193.304C169.482 193.523 169.287 193.76 169.028 194.011C168.77 194.265 168.479 194.504 168.158 194.724C164.443 197.186 160.682 199.426 156.748 201.519C156.398 201.698 156.136 201.758 155.97 201.706C155.8 201.652 155.743 201.487 155.8 201.216C158.191 189.727 160.334 178.193 162.512 166.664C162.566 166.369 162.383 166.222 161.954 166.219C157.837 166.164 153.755 165.988 149.649 165.679C149.152 165.636 148.773 165.486 148.517 165.235C148.261 164.984 148.155 164.658 148.201 164.259C148.655 160.492 149.155 156.734 149.712 152.982C149.772 152.58 149.965 152.292 150.29 152.121C150.614 151.954 151.034 151.922 151.545 152.026C167.488 155.019 183.615 155.721 199.802 155.103C200.325 155.077 200.704 155.126 200.937 155.248L200.943 155.245Z" fill="#E24B2C"/>
<path d="M44.7658 42.2712C44.5647 42.5483 44.3808 42.7244 44.2084 42.7994C41.4071 44.0493 40.0395 44.7219 37.2756 46.1767C37.1319 46.2517 36.9653 46.4509 36.7814 46.7742C35.2845 49.3749 33.8824 52.071 32.6096 54.7901C32.4458 55.1336 32.4458 55.2779 32.6096 55.2144C34.2128 54.5996 35.0575 54.3109 36.6205 53.7625C36.8044 53.699 36.8992 53.7683 36.9078 53.9732C36.9164 54.1782 36.8388 54.4957 36.6722 54.9229C35.1293 59.0275 33.7301 63.1495 32.443 67.3408C32.3079 67.7997 32.1442 68.1721 31.9545 68.4521C31.7649 68.735 31.5667 68.8937 31.3684 68.9312C29.6647 69.2459 28.7022 69.4162 26.9093 69.8116C26.7283 69.8521 26.5761 70.0599 26.4554 70.438C23.9788 78.5405 22.1859 86.6748 21.0137 95.0718C20.9534 95.5509 20.8442 95.9319 20.6833 96.209C20.5224 96.489 20.3299 96.6305 20.1058 96.6391C17.0574 96.7488 15.5346 96.8787 12.5351 97.2828C12.3139 97.3117 12.1559 97.2049 12.061 96.9624C11.9691 96.72 11.949 96.3707 12.0122 95.9146C15.3565 74.4821 24.4011 55.6792 39.1029 39.7888C39.4017 39.477 39.6746 39.1999 39.9188 38.9545C40.1602 38.7121 40.344 38.5273 40.4705 38.409C43.7631 35.2627 47.2424 32.2924 50.9286 29.6195C51.0665 29.5184 51.1182 29.5415 51.0809 29.6888C51.0435 29.836 50.9229 30.0929 50.7189 30.4566C48.7537 33.9724 47.0126 37.5863 45.3318 41.2493C45.1508 41.6535 44.9612 41.997 44.7629 42.2712H44.7658Z" fill="#E24B2C"/>
<path d="M32.3251 96.6739C32.2389 96.3679 32.2274 95.9522 32.2906 95.4356C35.3533 72.655 41.1341 50.267 51.7071 29.787C51.9025 29.4204 52.1008 29.1029 52.2933 28.8373C52.4858 28.5746 52.6553 28.3899 52.7961 28.2918C54.7124 26.9553 55.6922 26.3145 57.6861 25.0935C57.8326 25.004 57.9045 25.0444 57.8987 25.2176C57.893 25.3908 57.8125 25.6794 57.6574 26.0778C51.1727 43.2123 46.9895 61.002 43.7342 79.014C43.6538 79.473 43.7084 79.7068 43.898 79.7184C47.0584 79.9666 50.1614 80.2957 53.3046 80.7055C53.5316 80.7373 53.6896 80.9307 53.77 81.28C53.8534 81.6292 53.8505 82.0969 53.7672 82.6771C52.9828 88.1499 52.2358 93.6257 51.5319 99.1101C51.4572 99.699 51.3336 100.146 51.1613 100.444C50.9889 100.744 50.7878 100.859 50.5579 100.793C44.6709 99.1967 38.8155 97.9728 32.7733 97.1761C32.5578 97.1502 32.4084 96.9827 32.3222 96.6739H32.3251Z" fill="#E24B2C"/>
<path d="M57.9821 102.317C57.9074 101.925 57.9074 101.419 57.9878 100.802C59.2894 90.7883 60.6512 80.7807 62.0159 70.7759C62.0849 70.2592 62.1165 69.9186 62.1108 69.7425C62.4153 54.0571 62.4469 38.1782 64.5816 22.6054C64.5903 22.4928 64.6247 22.3109 64.6879 22.0627C64.8603 21.3815 65.0902 20.9716 65.3775 20.8272C67.5869 19.7246 68.7103 19.2079 70.9916 18.238C71.3105 18.1024 71.4427 18.4516 71.3823 19.2974C70.7847 26.3925 70.3624 33.4992 69.963 40.6058C69.9515 40.9176 69.9889 41.0705 70.0722 41.0619C70.1555 41.0532 70.2302 40.8887 70.2963 40.5654C71.6553 33.1181 72.9826 25.6651 74.2698 18.2034C74.4422 17.2739 74.6893 16.7543 75.0168 16.6302C77.344 15.7585 78.5249 15.3544 80.9153 14.6241C81.1078 14.5663 81.2342 14.6905 81.2917 15.0022C81.352 15.314 81.3463 15.7758 81.2745 16.3877C78.5852 34.6884 74.9622 52.8043 70.8393 70.8308C70.7876 71.0097 70.7301 71.3734 70.664 71.9248C69.3912 82.5905 67.9892 93.2361 66.5181 103.876C66.4262 104.528 66.2969 105.019 66.1245 105.342C65.9521 105.666 65.7625 105.787 65.5528 105.703C62.7199 104.569 61.2948 104.026 58.4131 103.021C58.2004 102.946 58.0568 102.713 57.9792 102.32L57.9821 102.317Z" fill="#E24B2C"/>
<path d="M74.735 109.331C74.6776 108.887 74.7034 108.318 74.8069 107.628C79.3521 77.1407 82.0759 46.5405 82.8976 15.7238C82.9119 15.1927 82.9694 14.7655 83.0728 14.4364C83.1763 14.1102 83.3113 13.9197 83.4837 13.8735C85.7822 13.2356 86.9458 12.9498 89.296 12.4447C89.4684 12.4072 89.6121 12.5399 89.7212 12.8344C89.8304 13.1317 89.8965 13.5647 89.9137 14.1304C90.8877 46.7397 88.2732 79.2392 83.0441 111.413C82.9234 112.137 82.7683 112.677 82.5844 113.032C82.3976 113.39 82.2051 113.517 82.004 113.419C79.2717 112.076 77.8983 111.418 75.1287 110.142C74.9247 110.047 74.7954 109.776 74.7379 109.331H74.735Z" fill="#E24B2C"/>
<path d="M103.073 10.9927C103.136 10.6348 103.257 10.45 103.44 10.4356C105.863 10.2624 107.081 10.2104 109.537 10.1816C109.721 10.1816 109.894 10.3605 110.052 10.7242C110.212 11.088 110.339 11.5931 110.431 12.2368C115.467 49.1268 113.315 86.34 105.725 122.722C105.552 123.53 105.354 124.139 105.139 124.538C104.92 124.942 104.71 125.089 104.512 124.985C101.978 123.675 99.4497 122.355 96.9214 121.036C96.5565 120.846 96.4789 120.009 96.6772 118.519C98.7774 101.399 99.8175 84.2473 99.76 66.9973C99.7485 66.6683 99.6997 66.4951 99.6078 66.4749C99.5158 66.4547 99.4584 66.6625 99.4325 67.0897C98.3378 83.6786 96.2491 100.094 93.2926 116.45C93.149 117.214 92.9766 117.789 92.7812 118.164C92.583 118.542 92.3876 118.681 92.1894 118.577C89.5432 117.209 88.213 116.525 85.5352 115.177C85.3341 115.076 85.2134 114.787 85.1732 114.311C85.133 113.837 85.1732 113.231 85.2996 112.498C90.7413 79.8222 93.1863 46.8926 91.8848 13.7753C91.859 13.2038 91.8906 12.7448 91.9739 12.4013C92.0572 12.0607 92.1894 11.8702 92.3646 11.8385C95.0108 11.3564 96.3468 11.1572 99.0475 10.8455C99.3808 10.808 99.6394 11.3391 99.8204 12.4562C102.234 27.2353 103.754 42.0692 104.463 57.0272C104.481 57.4602 104.535 57.6854 104.624 57.7027C104.713 57.72 104.765 57.5122 104.779 57.085C105.104 42.1587 104.607 27.3132 103.084 12.4591C103.018 11.8413 103.015 11.3535 103.078 10.9927H103.073Z" fill="#E24B2C"/>
<path d="M111.439 119.203C110.977 110.209 112.074 100.891 113.123 91.8331C115.108 74.3061 115.746 56.779 114.95 39.1567C114.611 31.7816 113.979 23.9447 115.353 16.9044C115.847 14.3729 116.62 9.23774 120.291 9.49175C121.926 9.60433 123.693 10.9899 125.457 13.6108C127.799 17.0862 129.261 21.0379 130.566 24.9694C132.471 30.7107 133.37 36.833 134.039 42.8977C134.249 45.129 134.341 46.2576 134.499 48.5322C134.557 49.3375 134.536 49.9581 134.444 50.3911C134.353 50.8241 134.2 51.0175 133.991 50.9655C131.149 50.2872 129.733 49.9639 126.923 49.3635C126.716 49.3202 126.543 49.0575 126.405 48.5813C126.268 48.1079 126.181 47.4728 126.141 46.6877C126.023 44.3323 125.952 43.1632 125.785 40.854C125.633 38.767 125.365 37.0871 125.009 35.8054C124.653 34.5267 124.271 33.8599 123.871 33.7964C123.472 33.7329 123.213 34.2958 123.076 35.485C122.938 36.6801 122.949 38.2994 123.087 40.3691C124.176 58.5947 123.57 76.7394 121.38 94.864C121.084 97.1761 120.949 99.0755 120.998 100.562C121.047 102.051 121.268 102.877 121.688 103.036C122.107 103.192 122.555 102.62 123.021 101.307C123.486 99.9963 123.886 98.172 124.185 95.8425C124.578 92.8348 124.92 89.8155 125.202 86.7961C125.273 86.0543 125.213 85.656 125.029 85.5982C124.883 85.552 124.811 85.5289 124.664 85.4828C124.452 85.4164 124.308 85.1162 124.231 84.5879C124.153 84.0597 124.15 83.3669 124.222 82.5096C124.745 75.631 125.058 68.7668 125.159 61.8709C125.167 61.054 125.227 60.4276 125.348 59.9889C125.469 59.553 125.633 59.3596 125.845 59.4087C128.695 60.0812 131.54 60.7942 134.373 61.5332C134.588 61.588 134.761 61.8738 134.89 62.3818C135.019 62.8927 135.088 63.5682 135.094 64.4081C135.079 75.8966 134.378 87.2868 132.994 98.6916C132.02 105.362 130.787 112.105 128.322 118.326C126.681 122.465 124.817 126.697 121.774 130.005C119.585 132.383 117.332 133.134 115.654 132.201C111.635 129.967 111.649 123.383 111.434 119.203H111.439Z" fill="#E24B2C"/>
<path d="M154.237 20.2238C154.496 20.6539 154.775 21.2139 155.065 21.9009C157.806 28.6352 160.081 35.4272 162.006 42.4444C162.21 43.218 162.311 43.8126 162.314 44.2196C162.317 44.6295 162.222 44.8027 162.032 44.7392C160.119 44.1041 159.159 43.7953 157.228 43.192C157.065 43.14 157.056 43.4518 157.2 44.1301C163.641 76.4969 161.716 109.305 152.58 140.959C152.318 141.828 152.045 142.498 151.767 142.962C151.488 143.43 151.235 143.638 151.017 143.589C148.046 142.913 146.578 142.538 143.684 141.71C143.472 141.649 143.38 141.352 143.406 140.818C143.432 140.289 143.572 139.582 143.822 138.71C152.585 107.022 154.806 74.3291 149.425 41.844C149.307 41.1656 149.161 40.8048 148.997 40.7586C147.092 40.2275 146.135 39.9677 144.219 39.4712C144.023 39.4222 143.837 39.1566 143.653 38.6803C143.469 38.2041 143.314 37.5748 143.179 36.7954C141.912 29.7696 140.357 22.8736 138.441 15.9979C138.24 15.2965 138.125 14.7625 138.105 14.393C138.085 14.0264 138.157 13.8619 138.329 13.9109C143.572 15.461 148.603 17.294 153.614 19.4762C153.772 19.5483 153.982 19.7995 154.24 20.2296L154.237 20.2238Z" fill="#E24B2C"/>
<path d="M172.223 144.221C173.542 139.706 174.622 135.117 175.533 130.504C175.591 130.259 175.616 130.01 175.611 129.754C175.605 129.5 175.553 129.364 175.461 129.352C173.809 129.121 172.987 129 171.356 128.746C171.264 128.732 171.157 128.844 171.039 129.084C170.922 129.323 170.833 129.566 170.778 129.814C169.563 134.462 168.12 139.051 166.52 143.577C165.945 145.277 165.391 146.091 164.903 146.031C161.828 145.641 160.303 145.407 157.289 144.865C156.777 144.772 156.895 143.75 157.593 141.79C171.002 103.659 174.051 61.3455 158.593 23.3269C158.079 22.103 157.961 21.5805 158.271 21.7393C160.676 22.9863 161.854 23.6444 164.161 25.0386C164.457 25.2175 164.983 25.9247 165.713 27.1775C185.908 62.9273 191.985 104.756 181.403 144.599C181.308 144.879 181.259 145.02 181.161 145.298C180.679 146.695 180.196 147.379 179.748 147.353C176.659 147.182 175.134 147.073 172.12 146.801C171.651 146.758 171.7 145.904 172.22 144.221H172.223ZM176.096 101.679C176.958 101.858 177.389 101.945 178.254 102.121C178.469 102.164 178.567 101.795 178.544 101.015C178.556 89.6769 177.564 78.5579 175.533 67.4072C175.43 66.928 175.349 66.6798 175.292 66.6625C175.234 66.6452 175.231 66.8703 175.277 67.3322C176.547 78.4049 176.72 89.3565 175.927 100.473C175.886 101.243 175.941 101.647 176.093 101.676L176.096 101.679Z" fill="#E24B2C"/>
<path d="M183.219 40.5106C186.698 44.3006 189.979 48.3302 193.062 52.458C197.041 57.7836 200.48 63.6664 203.072 69.6502C205.419 75.0711 207.422 81.1213 207.838 87.0878C208.117 91.0972 208.195 95.2365 206.767 99.1044C205.744 101.878 204.161 103.192 202.371 102.86C201.334 102.666 200.814 102.571 199.776 102.375C199.592 102.34 199.506 102.681 199.509 103.405C199.363 117.806 197.038 131.566 192.41 145.2C192.131 145.982 191.835 146.597 191.539 147.038C191.24 147.483 190.973 147.705 190.743 147.702C187.626 147.673 186.08 147.636 183.02 147.509C182.793 147.5 182.701 147.263 182.739 146.796C182.776 146.331 182.937 145.69 183.219 144.879C195.705 106.82 192.596 65.4647 171.585 31.0514C171.186 30.4192 170.91 29.9574 170.755 29.6572C170.603 29.3599 170.594 29.2588 170.735 29.3599C172.985 30.9475 175.188 32.6563 177.291 34.4373C179.406 36.3049 181.322 38.4467 183.213 40.5077L183.219 40.5106ZM198.075 75.0538C197.958 73.3738 197.389 70.6922 196.116 67.289C195.096 64.567 193.967 61.8075 192.482 59.2558C191.367 57.3391 190.508 56.2451 189.947 55.9767C189.758 55.8843 189.663 55.841 189.47 55.7486C189.324 55.6793 189.387 55.9449 189.654 56.554C192.346 62.9274 194.496 69.3327 196.208 76.0381C196.369 76.7049 196.53 77.0686 196.696 77.1205C196.915 77.1898 197.024 77.2245 197.242 77.2909C197.886 77.4929 198.19 76.7309 198.07 75.0538H198.075Z" fill="#E24B2C"/>
</svg>
