<svg width="201" height="203" fill="none" xmlns="http://www.w3.org/2000/svg"><g opacity=".88" filter="url(#a)" fill="#E24B2C"><path d="M67.11 100.58c18.611 0 33.699 15.015 33.699 33.538v1.56c0 18.523-15.088 33.538-33.7 33.538H34.796a.78.78 0 01-.671-1.182l4.955-8.187a48.16 48.16 0 000-49.898l-4.955-8.187a.78.78 0 01.671-1.182H67.11z"/><path d="M67.11 33.17c18.611 0 33.699 15.015 33.699 33.537v1.56c0 18.523-15.088 33.539-33.7 33.539H34.796a.78.78 0 01-.671-1.183l4.955-8.187a48.159 48.159 0 000-49.897l-4.955-8.187a.78.78 0 01.671-1.183H67.11zM133.59 169.216c-18.612 0-33.7-15.015-33.7-33.538v-1.56c0-18.523 15.088-33.538 33.7-33.538h32.313a.78.78 0 01.671 1.182l-4.954 8.187a48.156 48.156 0 000 49.898l4.954 8.187a.78.78 0 01-.671 1.182H133.59z"/><path d="M133.59 101.805c-18.612 0-33.7-15.015-33.7-33.538v-1.56c0-18.522 15.088-33.538 33.7-33.538h32.313a.78.78 0 01.671 1.182l-4.954 8.187a48.156 48.156 0 000 49.898l4.954 8.187a.78.78 0 01-.671 1.182H133.59z"/></g><defs><filter id="a" x="0" y="0" width="204.7" height="206.385" filterUnits="userSpaceOnUse" color-interpolation-filters="sRGB"><feFlood flood-opacity="0" result="BackgroundImageFix"/><feBlend in="SourceGraphic" in2="BackgroundImageFix" result="shape"/><feColorMatrix in="SourceAlpha" values="0 0 0 0 0 0 0 0 0 0 0 0 0 0 0 0 0 0 127 0" result="hardAlpha"/><feOffset dx="8" dy="4"/><feGaussianBlur stdDeviation="2"/><feComposite in2="hardAlpha" operator="arithmetic" k2="-1" k3="1"/><feColorMatrix values="0 0 0 0 0 0 0 0 0 0 0 0 0 0 0 0 0 0 0.23 0"/><feBlend in2="shape" result="effect1_innerShadow_54_2826"/></filter></defs></svg>