<svg width="418" height="92" fill="none" xmlns="http://www.w3.org/2000/svg"><path d="M312.119 45.986C312.119 20.588 335.283 0 363.857 0h2.406C394.837 0 418 20.588 418 45.986v44.093c0 .832-1.022 1.345-1.824.916l-12.629-6.761c-23.677-12.675-53.297-12.675-76.974 0l-12.63 6.76c-.802.43-1.824-.083-1.824-.915V45.986zM104.04 45.986C104.04 20.588 127.203 0 155.777 0h2.407c28.573 0 51.737 20.588 51.737 45.986v44.093c0 .832-1.022 1.345-1.824.916l-12.63-6.761c-23.676-12.675-53.297-12.675-76.974 0l-12.629 6.76c-.802.43-1.824-.083-1.824-.915V45.986z" fill="#E2583A"/><path d="M208.079 45.986C208.079 20.588 231.243 0 259.816 0h2.407c28.574 0 51.737 20.588 51.737 45.986v44.093c0 .832-1.022 1.345-1.824.916l-12.629-6.761c-23.677-12.675-53.298-12.675-76.974 0l-12.63 6.76c-.802.43-1.824-.083-1.824-.915V45.986zM0 45.986C0 20.588 23.164 0 51.737 0h2.407c28.574 0 51.737 20.588 51.737 45.986v44.093c0 .832-1.022 1.345-1.824.916l-12.63-6.761c-23.676-12.675-53.297-12.675-76.974 0l-12.63 6.76C1.023 91.425 0 90.912 0 90.08V45.986z" fill="#E2583A"/></svg>