<svg width="402" height="84" viewBox="0 0 402 84" fill="none" xmlns="http://www.w3.org/2000/svg">
<g clip-path="url(#clip0_176_17)">
<rect y="60" width="402" height="24" fill="#E3DDD3"/>
<path d="M300.172 41.8792C300.172 18.75 322.449 -4.29277e-06 349.928 0L352.243 3.6152e-07C379.723 4.65425e-06 402 18.75 402 41.8792V82.0349C402 82.7926 401.017 83.2601 400.245 82.8692L388.099 76.7121C365.329 65.1694 336.842 65.1694 314.072 76.7121L301.926 82.8692C301.155 83.2601 300.172 82.7926 300.172 82.0349V41.8792Z" fill="#E3DDD3"/>
<path d="M100.057 41.8792C100.057 18.75 122.334 -4.29277e-06 149.814 0L152.128 3.6152e-07C179.608 4.65425e-06 201.885 18.75 201.885 41.8792V82.0349C201.885 82.7926 200.902 83.2601 200.131 82.8692L187.985 76.7121C165.214 65.1694 136.728 65.1694 113.957 76.7121L101.811 82.8692C101.04 83.2601 100.057 82.7926 100.057 82.0349V41.8792Z" fill="#E3DDD3"/>
<path d="M200.114 41.8792C200.114 18.75 222.391 -4.29277e-06 249.871 0L252.185 3.6152e-07C279.665 4.65425e-06 301.942 18.75 301.942 41.8792V82.0349C301.942 82.7926 300.959 83.2601 300.188 82.8692L288.042 76.7121C265.271 65.1694 236.785 65.1694 214.014 76.7121L201.868 82.8692C201.097 83.2601 200.114 82.7926 200.114 82.0349V41.8792Z" fill="#E3DDD3"/>
<path d="M9.09961e-06 41.8792C1.43409e-05 18.75 22.2769 -4.29277e-06 49.7569 0L52.0711 3.6152e-07C79.5511 4.65425e-06 101.828 18.75 101.828 41.8792V82.0349C101.828 82.7926 100.845 83.2601 100.074 82.8692L87.9278 76.7121C65.1574 65.1694 36.6706 65.1694 13.9001 76.7121L1.75414 82.8692C0.98291 83.2601 -1.717e-07 82.7926 0 82.0349L9.09961e-06 41.8792Z" fill="#E3DDD3"/>
</g>
<defs>
<clipPath id="clip0_176_17">
<rect width="402" height="84" fill="white"/>
</clipPath>
</defs>
</svg>
